<svg xmlns="http://www.w3.org/2000/svg" xmlns:xlink="http://www.w3.org/1999/xlink" viewBox="0 0 937.34 122.19"><defs><style>.a{fill:url(#a);}.aw,.b,.bs{fill:#fff;}.aj,.ao,.b,.k,.l,.m,.u{opacity:0.1;}.c,.d{fill:#bd2900;}.af,.ak,.ap,.ar,.as,.aw,.ay,.bc,.bg,.c,.cd,.g,.i,.j,.n,.s{opacity:0.2;}.ag,.ah,.ai,.an,.at,.au,.bd,.ce,.d,.f{opacity:0.3;}.e{fill:url(#b);}.g{fill:#bababa;}.h{fill:#969696;}.az,.be,.cc,.h,.v,.x{opacity:0.4;}.j,.o{fill:#b0b0b0;}.l{fill:#6e6e6e;}.n{fill:#e6e6e6;}.p{fill:url(#c);}.q{fill:url(#d);}.r{fill:url(#e);}.t{fill:#1a1a1a;}.u,.v{fill:#f2f2f2;}.w{fill:url(#f);}.y{fill:url(#g);}.z{fill:url(#h);}.aa{fill:url(#i);}.ab{fill:url(#j);}.ac{fill:url(#k);}.ad{fill:url(#l);}.ae{fill:url(#m);}.af{fill:#ffc780;}.ag,.ak{fill:#ffb130;}.ah{fill:#bd2424;}.ai{fill:url(#n);}.aj{fill:#ba0e0e;}.al,.as,.au{fill:#9595ad;}.am{fill:url(#o);}.an,.ao,.ap,.aq{fill:#5a5a69;}.aq,.ba{opacity:0.5;}.ar{fill:#070708;}.av{fill:#212126;}.ax{fill:url(#p);}.ay{fill:#858585;}.az{fill:#696969;}.bb{fill:#595959;}.bc,.bd,.be,.bf{fill:#363636;}.bg{fill:#0a0a0a;}.bh{fill:url(#q);}.bi{fill:url(#r);}.bj{fill:url(#s);}.bk{fill:url(#t);}.bl{fill:url(#u);}.bm{fill:url(#v);}.bn{fill:url(#w);}.bo{fill:url(#x);}.bp{fill:url(#y);}.bq{fill:url(#z);}.br{fill:url(#aa);}.bt{fill:#8383ad;}.bu{fill:#c9c9ff;}.bv{fill:url(#ab);}.bw{fill:url(#ac);}.bx{fill:url(#ad);}.by{fill:url(#ae);}.bz{fill:url(#af);}.ca{fill:url(#ag);}.cb{fill:url(#ah);}.cc,.cd,.ce{fill:#0c0c1a;}</style><linearGradient id="a" x1="1011.42" y1="-5.09" x2="906.33" y2="92.57" gradientTransform="translate(3.63 -7.56) rotate(2.75)" gradientUnits="userSpaceOnUse"><stop offset="0" stop-color="#fff"/><stop offset="0.31" stop-color="#ffad45"/><stop offset="1" stop-color="#ff6d45"/></linearGradient><linearGradient id="b" x1="846.03" y1="93.87" x2="957.06" y2="93.87" gradientTransform="translate(3.63 -7.56) rotate(2.75)" gradientUnits="userSpaceOnUse"><stop offset="0" stop-color="#999"/><stop offset="1" stop-color="#333"/></linearGradient><linearGradient id="c" x1="884.42" y1="71.44" x2="859.58" y2="86.53" gradientTransform="translate(3.63 -7.56) rotate(2.75)" gradientUnits="userSpaceOnUse"><stop offset="0" stop-color="#333"/><stop offset="1" stop-color="#919191"/></linearGradient><linearGradient id="d" x1="867.05" y1="82.28" x2="878.72" y2="74.58" gradientTransform="translate(3.63 -7.56) rotate(2.75)" gradientUnits="userSpaceOnUse"><stop offset="0" stop-color="#424242"/><stop offset="1" stop-color="#919191"/></linearGradient><linearGradient id="e" x1="871.19" y1="127.31" x2="905.83" y2="119.63" xlink:href="#c"/><linearGradient id="f" x1="910.21" y1="85.22" x2="928.41" y2="80.16" xlink:href="#c"/><linearGradient id="g" x1="869.29" y1="107" x2="889.52" y2="96.42" gradientTransform="translate(3.63 -7.56) rotate(2.75)" gradientUnits="userSpaceOnUse"><stop offset="0" stop-color="#383838"/><stop offset="1" stop-color="#919191"/></linearGradient><linearGradient id="h" x1="900.25" y1="107.1" x2="905.43" y2="96.98" xlink:href="#c"/><linearGradient id="i" x1="913.19" y1="122.49" x2="928.13" y2="111.35" xlink:href="#c"/><linearGradient id="j" x1="926.69" y1="102.26" x2="940.79" y2="89.97" gradientTransform="translate(3.63 -7.56) rotate(2.75)" gradientUnits="userSpaceOnUse"><stop offset="0.01" stop-color="#1c1c1c"/><stop offset="1" stop-color="#919191"/></linearGradient><linearGradient id="k" x1="928.91" y1="70.09" x2="946.07" y2="62.93" xlink:href="#c"/><linearGradient id="l" x1="900.7" y1="62.77" x2="908.51" y2="62.77" xlink:href="#d"/><linearGradient id="m" x1="894.42" y1="77.59" x2="899.26" y2="77.59" xlink:href="#d"/><linearGradient id="n" x1="1009.37" y1="25.9" x2="946.93" y2="59.5" gradientTransform="translate(3.63 -7.56) rotate(2.75)" gradientUnits="userSpaceOnUse"><stop offset="0.31" stop-color="#ffad45"/><stop offset="1" stop-color="#ff6d45"/></linearGradient><linearGradient id="o" x1="69.79" y1="-168.24" x2="-61.35" y2="-78.76" gradientTransform="translate(325.84 29.02) rotate(142.79)" gradientUnits="userSpaceOnUse"><stop offset="0" stop-color="#bfbfde"/><stop offset="1" stop-color="#373740"/></linearGradient><linearGradient id="p" x1="147.27" y1="144.74" x2="-32.26" y2="219.98" gradientTransform="matrix(-0.68, 0.73, -0.73, -0.68, 274.38, 231.95)" gradientUnits="userSpaceOnUse"><stop offset="0" stop-color="#bfbfde"/><stop offset="1" stop-color="#212126"/></linearGradient><linearGradient id="q" x1="91.38" y1="117.44" x2="108.27" y2="117.44" gradientUnits="userSpaceOnUse"><stop offset="0" stop-color="#2c2c3d"/><stop offset="0.98" stop-color="#5a5a6b"/></linearGradient><linearGradient id="r" x1="137.12" y1="134.43" x2="151.28" y2="134.43" xlink:href="#q"/><linearGradient id="s" x1="96.88" y1="146.26" x2="109.72" y2="146.26" xlink:href="#q"/><linearGradient id="t" x1="102.95" y1="91.6" x2="121.82" y2="91.6" xlink:href="#q"/><linearGradient id="u" x1="133.47" y1="109.44" x2="143.28" y2="109.44" xlink:href="#q"/><linearGradient id="v" x1="63.95" y1="138.19" x2="80.35" y2="138.19" xlink:href="#q"/><linearGradient id="w" x1="128.74" y1="159.23" x2="138.98" y2="159.23" xlink:href="#q"/><linearGradient id="x" x1="79.69" y1="100.2" x2="88.74" y2="100.2" xlink:href="#q"/><linearGradient id="y" x1="102.32" y1="168.45" x2="110.55" y2="168.45" xlink:href="#q"/><linearGradient id="z" x1="122.39" y1="120.46" x2="132.88" y2="120.46" xlink:href="#q"/><linearGradient id="aa" x1="635.83" y1="159.09" x2="726.83" y2="83.09" gradientUnits="userSpaceOnUse"><stop offset="0" stop-color="#6a6a8a"/><stop offset="1" stop-color="#22222b"/></linearGradient><linearGradient id="ab" x1="641.05" y1="139.2" x2="624.23" y2="155.26" xlink:href="#aa"/><linearGradient id="ac" x1="688.45" y1="129.5" x2="657.86" y2="141.09" xlink:href="#aa"/><linearGradient id="ad" x1="662.34" y1="100.28" x2="641.92" y2="113.7" xlink:href="#aa"/><linearGradient id="ae" x1="719.58" y1="118.18" x2="693.5" y2="121.85" xlink:href="#aa"/><linearGradient id="af" x1="707.33" y1="145.96" x2="695.33" y2="154.71" xlink:href="#aa"/><linearGradient id="ag" x1="694.87" y1="89.02" x2="674.87" y2="102.39" xlink:href="#aa"/><linearGradient id="ah" x1="718.66" y1="89.82" x2="708.91" y2="100.07" xlink:href="#aa"/></defs><path class="a" d="M895.36,103.79C901.54,80,935.79,71,959.43,76.32s34.63-18.73,34.63-18.73,11.54,24.55-18.17,45.12-15,23.76-29.83,27.2S889.31,127.06,895.36,103.79Z" transform="translate(-58.93 -57.59)"/><path class="b" d="M912.9,98.59s-7-18.46,31.2-14.55,48.76-20.7,48.76-20.7-3.54,30.35-42.94,24.93S917.38,108,917.38,108Z" transform="translate(-58.93 -57.59)"/><path class="c" d="M993.5,58.68c1.59,5.34,6.49,28.08-21.67,36-32,9-45,31-45,31l2.38,4.64c6.62.68,12.76.47,16.85-.48,14.87-3.44.13-6.63,29.83-27.2,28.53-19.75,19-43.16,18.23-45l-.11,0C993.94,57.85,993.77,58.19,993.5,58.68Z" transform="translate(-58.93 -57.59)"/><path class="d" d="M951.36,81.7c30.52,3.81,40-14.22,42.81-23.86l-.11-.25s-11,24.07-34.63,18.73C939,71.7,910.51,77.87,899.26,95.06l3.1,9.57,6.7-6.93S910.12,76.55,951.36,81.7Z" transform="translate(-58.93 -57.59)"/><path class="e" d="M873.88,167.63c-.45,0-.92.15-1.43.19-6.17.43-17.12-2.71-20.26-5.48-3.39-3-11.22-16.82-8.19-20.92s7.55-9.9,7.86-16.26,4.9-13.56,4.9-13.56,9.28-9.11,17.81-9.77,20.06-5,25.53-8.32S917,89,920.73,91.31s19.25,11.9,26.23,14,11,14,7.15,20.51-20.91,15.28-23.87,18-.67,6.69-10.58,14-16.44,10.54-21.08,11.37S887.74,167.92,873.88,167.63Z" transform="translate(-58.93 -57.59)"/><path class="f" d="M879.11,108.8c-1.55-2.53-10.12.22-13.35,3.64,3.89-2.54,10-4.08,11.29-2,.69,1.13-.13,2.7-1.67,4.2C878.13,112.77,880.06,110.35,879.11,108.8Z" transform="translate(-58.93 -57.59)"/><path class="g" d="M888.41,145.32c-3.48-1-3.75-12.84-2-15s-7-1-12.52-3.1-13.72-8.18-13.84-10c-.05-.75-1.73-2.64-3.86-4.64-1.22,2.13-4.11,7.65-4.35,12.65-.31,6.36-4.83,12.16-7.86,16.26s4.8,17.93,8.19,20.92c3.14,2.77,14.09,5.91,20.26,5.48.51,0,1-.2,1.43-.19,0,0,23.74-9.82,24.38-10.62S891.89,146.32,888.41,145.32Z" transform="translate(-58.93 -57.59)"/><path class="h" d="M905.38,150.71l-7.12,6.3-25.81,10.81c.51,0,1-.2,1.43-.19,13.86.29,20.06,2.38,24.7,1.54s11.17-4.06,21.08-11.37,7.62-11.31,10.58-14c0,0-13.67,3.08-18,2.88S905.38,150.71,905.38,150.71Z" transform="translate(-58.93 -57.59)"/><path class="i" d="M884.62,99.87h0a51.68,51.68,0,0,1-10,2c-8.53.66-17.81,9.77-17.81,9.77s-4.6,7.21-4.9,13.56S847,137.32,844,141.42a5,5,0,0,0-.62,3.49l14.83-9.55.09-20.76,9.51-7.22Z" transform="translate(-58.93 -57.59)"/><path class="i" d="M884.62,99.87h0a51.68,51.68,0,0,1-10,2c-8.53.66-17.81,9.77-17.81,9.77s-4.6,7.21-4.9,13.56S847,137.32,844,141.42a5,5,0,0,0-.62,3.49l14.83-9.55.09-20.76,9.51-7.22Z" transform="translate(-58.93 -57.59)"/><path class="j" d="M895.63,102c-4.36.9-8.69,12.35-7.29,15.69s21.17,16.28,26.82,15.46,31.27-8.92,29.54-11.89S908.53,99.31,895.63,102Z" transform="translate(-58.93 -57.59)"/><path class="k" d="M947,105.32c-7-2.11-22.44-11.7-26.23-14a12.45,12.45,0,0,0-5.81-1.17C902.35,91,895.63,102,895.63,102c12.9-2.65,47.34,16.29,49.07,19.26,0,0,5.56.69,10.67,1.06C956.56,115.69,952.8,107.08,947,105.32Z" transform="translate(-58.93 -57.59)"/><path class="l" d="M947,105.32c-7-2.11-22.44-11.7-26.23-14a12.45,12.45,0,0,0-5.81-1.17C902.35,91,895.63,102,895.63,102c12.9-2.65,47.34,16.29,49.07,19.26,0,0,5.56.69,10.67,1.06C956.56,115.69,952.8,107.08,947,105.32Z" transform="translate(-58.93 -57.59)"/><g class="m"><path d="M944.7,121.22c1.73,3-23.89,11.07-29.54,11.89a4.51,4.51,0,0,1-.91,0h0l-4.71,14h0a6.36,6.36,0,0,1,2.71-.46c4.35.2,18-2.88,18-2.88,3-2.69,20-11.43,23.87-18A11.92,11.92,0,0,0,955.6,120Z" transform="translate(-58.93 -57.59)"/><path d="M929,145.44l-.06.13Z" transform="translate(-58.93 -57.59)"/><path d="M929.36,144.85a1.62,1.62,0,0,0-.1.18A1.62,1.62,0,0,1,929.36,144.85Z" transform="translate(-58.93 -57.59)"/><path d="M929.76,144.31c0,.05-.08.11-.13.16S929.71,144.36,929.76,144.31Z" transform="translate(-58.93 -57.59)"/></g><path class="n" d="M888.34,117.65l-1.79,11.86c.15.2.14.44-.12.77l-.79,2.23c-.75,4.17,0,12,2.77,12.81,3.48,1,10.48,10.89,9.85,11.69l7.12-6.3a9.5,9.5,0,0,1,4.13-3.57h0l4.71-14h0C907.65,132.7,889.67,120.83,888.34,117.65Z" transform="translate(-58.93 -57.59)"/><path class="o" d="M914.81,90.13l-.13,0c.33,0,.68,0,1,0Z" transform="translate(-58.93 -57.59)"/><path class="o" d="M900,93.5c-5.46,3.28-17,7.68-25.53,8.33a18.57,18.57,0,0,0-6.11,1.69l-.05.07a19,19,0,0,1,6.27-1.76,51.68,51.68,0,0,0,10-2h0l-16.81,7.51-4.26,3.24,24.68,7c-1.4-3.33,2.93-14.79,7.3-15.69,0,0,6.67-10.87,19.15-11.8C909.8,90.09,903.61,91.33,900,93.5Z" transform="translate(-58.93 -57.59)"/><path class="p" d="M864.12,117.22c-4.72-5.28,13.62-13.25,16.12-9.1S868.06,121.62,864.12,117.22Z" transform="translate(-58.93 -57.59)"/><path class="q" d="M865.19,116.54c-4.09-4.5,11.75-11.28,13.92-7.74S868.59,120.28,865.19,116.54Z" transform="translate(-58.93 -57.59)"/><path class="r" d="M878.24,156.72c-16.21-3.37-10.45,12.57,3.91,7s8.1-11.43,8.1-11.43S888,158.75,878.24,156.72Z" transform="translate(-58.93 -57.59)"/><g class="s"><path class="t" d="M890.25,152.32a7.26,7.26,0,0,1-2.68,3.18c.75,1.24,1.53,3.66-1.39,6.41C895.19,157,890.25,152.32,890.25,152.32Z" transform="translate(-58.93 -57.59)"/><path class="t" d="M874.9,159.05c6.28,1.31,9.44-.89,10.91-2.63a13.28,13.28,0,0,1-7.57.3c-5.93-1.23-8.91.12-9.62,2.06A16.09,16.09,0,0,1,874.9,159.05Z" transform="translate(-58.93 -57.59)"/></g><path class="u" d="M888,116.53a30.4,30.4,0,0,0,3.51,6.64c1.84,2.27,18.32,10.78,18.32,10.78l3.9.67,2.47-1.84L911,131.59,895.47,121.5l-4.92-2.89Z" transform="translate(-58.93 -57.59)"/><polygon class="v" points="799.84 57.54 801.07 76.09 800.25 80.2 784.45 87.32 798.07 78 799.84 57.54"/><path class="w" d="M914,114.67c-11.37.61-5.14,13.47,4.06,9.86S917.7,114.48,914,114.67Z" transform="translate(-58.93 -57.59)"/><path class="x" d="M914,114.67c-2.53.14-4.18.88-5.13,1.91a10.84,10.84,0,0,1,2.73-.46c3.2-.18,10.79,4.63,6.81,8.26C927,120.75,917.65,114.48,914,114.67Z" transform="translate(-58.93 -57.59)"/><path class="y" d="M868.26,133.56c13.81-6.28,13.92,8.56,5.34,10.95S858.44,138,868.26,133.56Z" transform="translate(-58.93 -57.59)"/><path class="f" d="M868.26,133.56a9.67,9.67,0,0,0-3.91,2.9l.15-.07c10.78-4.9,13.21,3.05,9.68,7.92C882.16,141.42,881.75,127.43,868.26,133.56Z" transform="translate(-58.93 -57.59)"/><path class="z" d="M900.7,134.86c-3.73-1.64-9.51,4.37-2.87,7.8S906.8,137.54,900.7,134.86Z" transform="translate(-58.93 -57.59)"/><path class="i" d="M899.36,141.11c-3.29-1.7-3.53-4-2.48-5.75-2.36,1.53-3.51,5,1,7.3,3,1.57,5.16.62,6-1.12C902.73,142.08,901.22,142.08,899.36,141.11Z" transform="translate(-58.93 -57.59)"/><path class="aa" d="M908.48,159.68c-2.66-3.42,4.63-9.85,9.12-7.09S912,164.21,908.48,159.68Z" transform="translate(-58.93 -57.59)"/><path class="i" d="M917.6,152.59c-3-1.82-7.12.36-8.86,3,2-1.3,4.49-1.86,6.46-.65,1.6,1,1.34,2.74.19,4.4C918.17,157.39,920,154.09,917.6,152.59Z" transform="translate(-58.93 -57.59)"/><path class="ab" d="M927.8,131.49C931.73,128.67,938,133,933,137S922.91,135,927.8,131.49Z" transform="translate(-58.93 -57.59)"/><path class="x" d="M927.8,131.49a5.24,5.24,0,0,0-1.31,1.31c3.54-1.73,8.18,1.41,5.53,4.84a7.58,7.58,0,0,0,1-.66C938,133,931.73,128.67,927.8,131.49Z" transform="translate(-58.93 -57.59)"/><path class="ac" d="M928.07,104.3c.18-3.73,11.74-2,11.65,1.41S927.94,107.09,928.07,104.3Z" transform="translate(-58.93 -57.59)"/><path class="x" d="M928.2,103.78c3-1.4,10.47.25,10.4,3a1,1,0,0,1-.09.34,1.59,1.59,0,0,0,1.21-1.41C939.8,102.47,929.41,100.76,928.2,103.78Z" transform="translate(-58.93 -57.59)"/><path class="ad" d="M903.21,101.23c-6.82-.71-.41-5.78,2.45-5.33S909.89,101.93,903.21,101.23Z" transform="translate(-58.93 -57.59)"/><path class="x" d="M905.66,95.9c-1.68-.26-4.57,1.37-5.31,2.91a6.34,6.34,0,0,1,4.34-1.71,2.92,2.92,0,0,1,2.26,3.56C909,99.31,907.76,96.23,905.66,95.9Z" transform="translate(-58.93 -57.59)"/><path class="ae" d="M893.69,114.31c-1.53-1.25,1.08-5.18,3.42-3.09S897.23,117.22,893.69,114.31Z" transform="translate(-58.93 -57.59)"/><path class="x" d="M897.11,111.22c-1.52-1.35-3.14-.18-3.68,1.16a2,2,0,0,1,2.57.22,2.63,2.63,0,0,1,.9,2.58A2.36,2.36,0,0,0,897.11,111.22Z" transform="translate(-58.93 -57.59)"/><path class="f" d="M954.74,114.38c-.11-.33-.22-.66-.35-1,0-.14-.1-.28-.16-.42-.12-.29-.24-.58-.37-.87l-.25-.49c-.13-.26-.26-.51-.4-.76s-.3-.5-.46-.74-.34-.52-.52-.76-.37-.51-.57-.75-.24-.26-.37-.4-.38-.41-.58-.61-.26-.24-.4-.35a6.44,6.44,0,0,0-.65-.52l-.4-.3a8.15,8.15,0,0,0-.75-.44c-.13-.07-.24-.14-.37-.2a7.44,7.44,0,0,0-1.18-.47c-7-2.11-22.44-11.7-26.23-14A5.07,5.07,0,0,0,920,91l-.22-.09c-.22-.08-.45-.16-.7-.23l-.35-.09-.64-.13-.52-.09-.38,0c-.42-.05-.86-.09-1.31-.12h-.12c-.26,0-.53,0-.8,0h-.22a30.67,30.67,0,0,0-3.88.2l-.44,0c-.37,0-.74.09-1.11.15a27,27,0,0,0-9.35,3c-5.46,3.28-17,7.68-25.53,8.33a18.57,18.57,0,0,0-6.11,1.69l-.05.07h0a39.8,39.8,0,0,0-7.35,4.47q.13.43.24.9c4.35,19.58.6,21.59,29.32,16.12,17.1-3.26,36.59,2.47,47.37,13.7,6.09-3.81,13.8-8.81,16.23-13a8.37,8.37,0,0,0,.64-1.31,1.72,1.72,0,0,0,.07-.21,10.19,10.19,0,0,0,.39-1.22s0-.06,0-.09c.06-.24.09-.48.14-.72h0a14.33,14.33,0,0,0,.23-2.29h0a18.22,18.22,0,0,0-.78-5.34C954.79,114.56,954.77,114.47,954.74,114.38Z" transform="translate(-58.93 -57.59)"/><path class="i" d="M954.75,124.52a1.72,1.72,0,0,0,.07-.21,10.19,10.19,0,0,0,.39-1.22s0-.06,0-.09c.06-.24.09-.48.14-.72h0a14.33,14.33,0,0,0,.23-2.29h0a18.22,18.22,0,0,0-.78-5.34c0-.09-.05-.18-.08-.27-.11-.33-.22-.66-.35-1,0-.14-.1-.28-.16-.42-.12-.29-.24-.58-.37-.87l-.25-.49c-.13-.26-.26-.51-.4-.76s-.3-.5-.46-.74-.34-.52-.52-.76-.37-.51-.57-.75-.24-.26-.37-.4-.38-.41-.58-.61-.26-.24-.4-.35a6.44,6.44,0,0,0-.65-.52l-.4-.3a8.15,8.15,0,0,0-.75-.44c-.13-.07-.24-.14-.37-.2a7.44,7.44,0,0,0-1.18-.47c-7-2.11-22.44-11.7-26.23-14A5.07,5.07,0,0,0,920,91l-.22-.09c-.22-.08-.45-.16-.7-.23l-.35-.09-.64-.13-.52-.09-.38,0c-.42-.05-.86-.09-1.31-.12h-.12c-.26,0-.53,0-.8,0h-.22a30.67,30.67,0,0,0-3.88.2l-.44,0c-.37,0-.74.09-1.11.15a27,27,0,0,0-9.35,3,73.16,73.16,0,0,1-22.48,8c4.61,2,11.33,3.48,20.93,4.26,25.18,2,44.8,10,54.57,21.65a11.67,11.67,0,0,0,1.1-1.54A8.37,8.37,0,0,0,954.75,124.52Z" transform="translate(-58.93 -57.59)"/><path class="af" d="M954.74,114.38c-.11-.33-.22-.66-.35-1,0-.14-.1-.28-.16-.42-.12-.29-.24-.58-.37-.87l-.25-.49c-.13-.26-.26-.51-.4-.76s-.3-.5-.46-.74-.34-.52-.52-.76-.37-.51-.57-.75-.24-.26-.37-.4-.38-.41-.58-.61-.26-.24-.4-.35a6.44,6.44,0,0,0-.65-.52l-.4-.3a8.15,8.15,0,0,0-.75-.44c-.13-.07-.24-.14-.37-.2a7.44,7.44,0,0,0-1.18-.47c-7-2.11-22.44-11.7-26.23-14A5.07,5.07,0,0,0,920,91l-.22-.09c-.22-.08-.45-.16-.7-.23l-.35-.09-.64-.13-.52-.09-.38,0c-.42-.05-.86-.09-1.31-.12h-.12c-.26,0-.53,0-.8,0h-.22a30.67,30.67,0,0,0-3.88.2l-.44,0c-.37,0-.74.09-1.11.15a27,27,0,0,0-9.35,3c-.65.39-1.4.8-2.21,1.21,7.84,2.34,17.63,4.55,29.63,6.94,13.45,2.66,21.5,12.92,26.51,24.47a2.9,2.9,0,0,0,.19-.29,8.37,8.37,0,0,0,.64-1.31,1.72,1.72,0,0,0,.07-.21,10.19,10.19,0,0,0,.39-1.22s0-.06,0-.09c.06-.24.09-.48.14-.72h0a14.33,14.33,0,0,0,.23-2.29h0a18.22,18.22,0,0,0-.78-5.34C954.79,114.56,954.77,114.47,954.74,114.38Z" transform="translate(-58.93 -57.59)"/><path class="b" d="M854.17,116.57,854,117l0,.07-.37.91-.09.25-.3.81-.09.27c-.11.32-.22.65-.32,1l0,.09c-.11.36-.21.73-.31,1.1l-.06.25c-.07.29-.13.57-.19.86l-.06.35c0,.26-.09.53-.13.79,0,.11,0,.22,0,.33,0,.37-.08.74-.09,1.1-.31,6.36-4.83,12.16-7.86,16.26a2.93,2.93,0,0,0-.4.79,2.34,2.34,0,0,0-.11.4,3.69,3.69,0,0,0-.1.52,5.6,5.6,0,0,0,0,.6v.38c.07,5.62,6,15.72,8.85,18.23,3.14,2.77,14.09,5.91,20.26,5.48.51,0,1-.2,1.43-.19,13.86.29,20.06,2.38,24.7,1.54s11.17-4.06,21.08-11.37c7.71-5.69,8-9.37,9.2-12C888.8,146.1,861.12,134.31,854.17,116.57Z" transform="translate(-58.93 -57.59)"/><path class="k" d="M878.78,127.11c34.76-10.68,36.06-22,46.54-33-2-1.22-3.66-2.22-4.59-2.79A5.07,5.07,0,0,0,920,91h0l-.22-.09h0c-.22-.08-.45-.16-.7-.23l-.35-.09h0l-.64-.13-.52-.09h0l-.38,0h0c-.42-.05-.86-.09-1.31-.12h-.12c-.26,0-.53,0-.8,0h-.22q-.91,0-1.89,0h0c-.64,0-1.3.08-2,.16h0l-.44,0c-.37,0-.74.09-1.11.15h0l-1.15.19-.45.09c-.55.11-1.09.22-1.62.35-.27.07-.54.13-.8.21s-.51.14-.76.21-.74.23-1.1.36c-.15,0-.3.09-.44.15-.47.17-.92.36-1.36.55l-.37.17c-.46.22-.9.44-1.3.68s-.67.39-1,.6h0q-.54.3-1.14.6l-.48.25-.73.36-.61.28-.72.33-.69.31-.71.31-.77.32-.67.27-.87.35-.54.21c-1.31.5-2.67,1-4.06,1.43h0l-1.29.4-.35.11L884,100l-.41.12-1.22.32-.42.1-1.22.29-.39.09-1.23.25-.31.06-1.3.23c-1,.16-2.07.29-3,.37a18.57,18.57,0,0,0-6.11,1.69l-.05.07h0c-.66.3-1.31.62-1.95,1l-.27.15c-.54.3-1.06.6-1.58.92l-.29.18c-1.18.74-2.27,1.51-3.23,2.23l0,0h0a47.17,47.17,0,0,0-4.19,3.54s-.22.34-.55.91h0c-.08.13-.15.26-.24.42a.75.75,0,0,1-.07.12l-.33.62-.23.43c-.05.09-.09.19-.14.28s-.17.34-.26.52-.09.17-.13.27-.22.44-.32.68l-.09.17q-.21.47-.42,1l0,.07h0l-.37.9h0l-.09.25-.3.81-.09.27c-.11.32-.22.65-.32,1l0,.09h0c-.11.36-.21.73-.31,1.1l-.06.25h0c-.07.29-.13.57-.19.86l-.06.35c0,.26-.09.52-.13.79h0c0,.11,0,.22,0,.33h0c0,.37-.08.74-.09,1.1-.2,4.1-2.16,8-4.33,11.3C856.55,133.38,867.09,130.71,878.78,127.11Z" transform="translate(-58.93 -57.59)"/><path class="f" d="M930.24,143.8c1.32-1.19,5.4-3.58,9.88-6.43l.28-.18.84-.54.32-.21.88-.57.26-.17,1.12-.75.18-.12.9-.63.36-.25.74-.52.36-.26.81-.6.24-.17,1-.77.24-.19.72-.58.31-.26.62-.53.25-.22c-10.71,1.13-20.86,3.78-26.28,9-13.88,13.32-16.14,23.86-31,24.39a23.06,23.06,0,0,0-13.33,4.68c9.73.63,14.76,2,18.66,1.28,4.64-.83,11.17-4.06,21.08-11.37.56-.42,1.08-.82,1.57-1.21l.42-.36c.34-.28.66-.56,1-.83l.38-.34.91-.89.19-.19c.35-.36.66-.71.95-1l.1-.12q.38-.45.69-.87l.15-.2c.19-.27.37-.54.54-.8l.07-.11a30,30,0,0,0,2.26-5A5.66,5.66,0,0,1,930.24,143.8Z" transform="translate(-58.93 -57.59)"/><path class="ag" d="M921.68,81.72s16-5.72,32.55-3.28,26.09-4.8,26.09-4.8-5,12.49-24.83,7.82S921.68,81.72,921.68,81.72Z" transform="translate(-58.93 -57.59)"/><path class="ag" d="M957.93,111.72s-2.32-12.38,10.43-14,21.87-14.54,21.87-14.54-6.47,18.1-19.35,18.25S957.93,111.72,957.93,111.72Z" transform="translate(-58.93 -57.59)"/><path class="ah" d="M984,73c-.85-1.59,4-4.64,4-4.64S985,74.9,984,73Z" transform="translate(-58.93 -57.59)"/><path class="ai" d="M943.73,100.43c-17-3.86,4.07-15.59,20.7-13.85s27.61-17,27.61-17S970.43,106.49,943.73,100.43Z" transform="translate(-58.93 -57.59)"/><path class="aj" d="M932.07,98.06c-9.56-7.72,11.56-13.16,28.67-12s25.79-12.16,25.79-12.16-5.68,13.26-25.36,18.24S940.56,104.92,932.07,98.06Z" transform="translate(-58.93 -57.59)"/><path class="ak" d="M942.67,98.72c-8.5-9.68,15.88-8.24,26.51-9.3s17.11-10.51,17.11-10.51.34,8.11-16,11.48S945.52,102,942.67,98.72Z" transform="translate(-58.93 -57.59)"/><path class="ak" d="M930.33,88.47c-7.1-6.16,7.58-9.54,26.91-6.72a43.18,43.18,0,0,0,32.61-8.83s-9.34,13.39-32.59,12.38S935.27,92.75,930.33,88.47Z" transform="translate(-58.93 -57.59)"/><path class="al" d="M431.16,84.32c10.55,15,17.81,25.8,17.57,39.57s2.68,30.15-3.55,39.17-27.66,7.41-36.42,7.63-30.77-4.52-45.17-8.6-28.31-22-27.79-25.37c1.95-13,12.48-15.92,21.22-24s47.41-33.86,55.2-36.91S424,74.05,431.16,84.32Z" transform="translate(-58.93 -57.59)"/><path class="am" d="M430.49,85.81c10.56,15,17.82,25.8,17.57,39.57s2.68,30.14-3.54,39.16-27.66,7.42-36.42,7.64-30.77-4.52-45.17-8.6-28.31-22-27.79-25.38c1.95-12.95,12.48-15.91,21.22-24s47.41-33.86,55.2-36.91S423.29,75.54,430.49,85.81Z" transform="translate(-58.93 -57.59)"/><path class="an" d="M436.31,164.87c-.24,2.95-7.16,3.7-5.9.14S436.56,161.92,436.31,164.87Z" transform="translate(-58.93 -57.59)"/><path class="ao" d="M419.49,163.62c1.57,4.89-12.72,4.54-8.3-4S417.43,157.22,419.49,163.62Z" transform="translate(-58.93 -57.59)"/><path class="ap" d="M429.51,161.19c-1.86,2.79-8.48-6.45-4.6-9.21S432.89,156.13,429.51,161.19Z" transform="translate(-58.93 -57.59)"/><path class="an" d="M408.29,158c-.83,8.49-17.52,6.05-15.27-2.37S409.11,149.62,408.29,158Z" transform="translate(-58.93 -57.59)"/><path class="aq" d="M379.69,125.39c-.84,8.49-17.53,6-15.28-2.38S380.51,117,379.69,125.39Z" transform="translate(-58.93 -57.59)"/><path class="an" d="M420.71,131.65c-.84,8.49-17.53,6-15.28-2.37S421.53,123.29,420.71,131.65Z" transform="translate(-58.93 -57.59)"/><path class="ar" d="M434.73,108.48c7.1,3.87-8.56-10.16-14.1-9.5s-2.42-8-5.73-10.75-16.67,6.69-16.67,6.69,12.24-7.54,15.62-3-2.29,6.48,4.52,9.29S422.67,101.92,434.73,108.48Z" transform="translate(-58.93 -57.59)"/><path class="ar" d="M428.68,94.79s-5.8,1.4-6.09-3.12S420.16,80.32,418,80.41s-8.36,4.11-8.36,4.11,4.55-8.83,10.13-5,3.63,7.73,4.52,10.32S428.68,94.79,428.68,94.79Z" transform="translate(-58.93 -57.59)"/><path class="ar" d="M420.78,94.52c-.84,1.47-4.9-.34-2-2.61S421.55,93.15,420.78,94.52Z" transform="translate(-58.93 -57.59)"/><path class="ar" d="M436.64,102.41c1.73-3.21-3.8-8.42-5.87-5.07S435.67,104.21,436.64,102.41Z" transform="translate(-58.93 -57.59)"/><path class="as" d="M442.79,141.68c.27-4.79-5.67-12.28-9.48-9.84s-4.66.79-9.91-.56-7.31-1.09-11.33.07-4.76-3.79-10.23-8.14-25.12,3.65-17.41,12.17,16.53,16.67,25.73,13.53,9.07-7.45,16.67-5.16S442.42,148.45,442.79,141.68Z" transform="translate(-58.93 -57.59)"/><path class="f" d="M401.84,123.21c5.47,4.35,6.22,9.3,10.23,8.14s6.08-1.42,11.33-.07,6.09,3,9.91.56c1.73-1.11,3.9-.16,5.73,1.66h0s3.71-13-4.4-13.76-15.14.35-16.25-5.15-1.33-10.84-4.38-13.5-26.82,1-26.1,8.7c.63,6.77-2.43,9.67,1.32,14.16C393.74,121.83,399.31,121.19,401.84,123.21Z" transform="translate(-58.93 -57.59)"/><path class="i" d="M354.16,126.31c10.39-3.44,17,14.16,25.35,12.21a9.6,9.6,0,0,0,5-3.07l-.07-.07c-4.14-4.58-.39-9,4.82-11.44-3.75-4.49-.69-7.39-1.32-14.16a4.45,4.45,0,0,1,1.55-3.56L382.67,95c-11.18,7.51-22.15,15.39-26.31,19.23-5.36,5-11.39,8-15.7,12.58A23.83,23.83,0,0,0,354.16,126.31Z" transform="translate(-58.93 -57.59)"/><g class="at"><path d="M436.24,131.62l-.09,0Z" transform="translate(-58.93 -57.59)"/><path d="M437,132l-.13-.07Z" transform="translate(-58.93 -57.59)"/><path class="au" d="M434.58,91.69c-8.5,3.1-17.1,10.22-17.1,10.22a20.56,20.56,0,0,0-1.53,1.86c1.31,2.87,1.65,6.8,2.46,10.81,1.11,5.5,8.13,4.34,16.25,5.15s4.4,13.76,4.4,13.76h0c.23.22.45.46.67.7l.05,0c1.92.43,5.54-4.25,8.27-11C447.59,112.28,442.36,103.07,434.58,91.69Z" transform="translate(-58.93 -57.59)"/><path d="M438.42,132.93l-.09-.08Z" transform="translate(-58.93 -57.59)"/><path d="M433.49,131.75l0,0h0Z" transform="translate(-58.93 -57.59)"/><path d="M437.72,132.39l-.13-.08Z" transform="translate(-58.93 -57.59)"/></g><g class="at"><path class="av" d="M437.84,96.6h0l-.26-.39C437.68,96.33,437.76,96.46,437.84,96.6Z" transform="translate(-58.93 -57.59)"/><path class="av" d="M416.75,106a.93.93,0,0,0,0,.13A.93.93,0,0,1,416.75,106Z" transform="translate(-58.93 -57.59)"/><path class="av" d="M436,93.85c.18.26.34.51.51.77C436.38,94.36,436.22,94.11,436,93.85Z" transform="translate(-58.93 -57.59)"/><path class="av" d="M414,101.08a7.76,7.76,0,0,1,1.92,2.69,20.56,20.56,0,0,1,1.53-1.86s8.6-7.12,17.1-10.22c-1.3-1.9-2.66-3.85-4.09-5.88-7.2-10.27-11.15-11.56-18.93-8.5-4,1.55-15.9,9-27.82,17,2.57,6.12,5.74,12,5.74,12C394.71,101,411.49,98.87,414,101.08Z" transform="translate(-58.93 -57.59)"/><path class="av" d="M416.37,104.82l.06.18Z" transform="translate(-58.93 -57.59)"/></g><path class="b" d="M439.11,162.87c9.87-22.65-9.92-23.81-34.91-13.41s-63.26-13.94-63.26-13.94,13.46,25.24,39.5,25.63S432.75,177.47,439.11,162.87Z" transform="translate(-58.93 -57.59)"/><path class="i" d="M402.82,129.62c1.26,3.93-5.49,3.89-4.14.25S401.35,125,402.82,129.62Z" transform="translate(-58.93 -57.59)"/><path class="i" d="M386.41,158.84c3.62,2-1.29,6.61-2.82,3S382.17,156.53,386.41,158.84Z" transform="translate(-58.93 -57.59)"/><path class="i" d="M363.46,121.05c1.25,3.93-5.5,3.9-4.14.25S362,116.45,363.46,121.05Z" transform="translate(-58.93 -57.59)"/><path class="i" d="M442.7,131.61c1.25,3.93-5.5,3.89-4.14.25S441.22,127,442.7,131.61Z" transform="translate(-58.93 -57.59)"/><path class="i" d="M410.39,108.78c1.26,3.93-5.49,3.89-4.13.25S408.92,104.18,410.39,108.78Z" transform="translate(-58.93 -57.59)"/><path class="i" d="M443.23,149.35c-2.34,3.39-6.44-2-2.73-3.12S446,145.38,443.23,149.35Z" transform="translate(-58.93 -57.59)"/><path class="k" d="M419.06,136.9c-.29,1.76,4.23,2.18,5.11-.48S419.35,135.15,419.06,136.9Z" transform="translate(-58.93 -57.59)"/><path class="k" d="M343.65,148.13c-.29,1.76,4.22,2.17,5.11-.49S343.93,146.37,343.65,148.13Z" transform="translate(-58.93 -57.59)"/><path class="k" d="M390.19,102.16c.8,1.59,4.69-.72,3.84-3.4S389.39,100.57,390.19,102.16Z" transform="translate(-58.93 -57.59)"/><path class="k" d="M424.82,110.15c.8,1.59,4.7-.72,3.85-3.4S424,108.56,424.82,110.15Z" transform="translate(-58.93 -57.59)"/><path class="f" d="M372.45,105.15l-5.24,5s-4.26,2.09-4.77,2.46-4.93,4.87-6.08,6-6.42,4.22-7.56,5-6.35,7.23-6.35,7.23,1.12-6.38,6.32-9.3,5.52-3,6.74-4.65,5.26-5.81,7.41-6.65,2.58-.76,4-2A32.43,32.43,0,0,1,372.45,105.15Z" transform="translate(-58.93 -57.59)"/><path class="aw" d="M373.74,106s-4.84,6.88-5.86,7.61-5,1-8.69,4.93a58.33,58.33,0,0,1-8.85,8c-1.58,1-4.8,4.62-4.8,4.62a15.34,15.34,0,0,1,4.76-7.1c3.56-2.82,8.08-6.19,10.58-8.59s5.51-3.1,6.28-3.59S373.74,106,373.74,106Z" transform="translate(-58.93 -57.59)"/><path class="k" d="M367.05,141.38c-.58,2.18-3.21.75-2-.92S367.86,138.38,367.05,141.38Z" transform="translate(-58.93 -57.59)"/><path class="k" d="M381,105.62c-1.87,1.28-2.94-1.51-.93-2S383.53,103.85,381,105.62Z" transform="translate(-58.93 -57.59)"/><path class="k" d="M393.16,148c-1.59,1.61-3.16-.94-1.27-1.78S395.35,145.82,393.16,148Z" transform="translate(-58.93 -57.59)"/><path class="k" d="M406.35,169.16c-1.6,1.6-3.17-.94-1.27-1.79S408.54,167,406.35,169.16Z" transform="translate(-58.93 -57.59)"/><path class="k" d="M385.4,123.61c-2.16.69-2.38-2.29-.31-2.17S388.36,122.67,385.4,123.61Z" transform="translate(-58.93 -57.59)"/><path class="x" d="M370,147.23c-1.3,3.06,7.33,3.38,7.59,2.22l.41.43C377.39,148.9,371.27,144.17,370,147.23Z" transform="translate(-58.93 -57.59)"/><path class="b" d="M420.68,125.78c8.41,1.74-12.15-7.25-13.74-10s-10.61-7.87-15.65-1S375,127.46,375,127.46s7.74.27,14.95-6.69,14.9-4.33,16.18.19S414.75,124.55,420.68,125.78Z" transform="translate(-58.93 -57.59)"/><path class="b" d="M405.85,93.91c-2.4-5.25-8.82-6.12-18.22,3.75s-23.14,23.13-24.17,23.39,3-.14,14.91-10.65S405.85,93.91,405.85,93.91Z" transform="translate(-58.93 -57.59)"/><path class="i" d="M392.83,131.85c10.29,5.08,11.27,17.61,32.06,8.08,7.86-3.6,16.17-9.15,23.74-12.44,0-1.21,0-2.42,0-3.6.24-13.77-7-24.53-17.57-39.57-7.2-10.27-11.15-11.56-18.94-8.5s-46.46,28.85-55.2,36.91c-7.47,6.9-16.24,10.09-19.85,19a21.49,21.49,0,0,0-2,6.5,2.14,2.14,0,0,0,.07.8C357.6,137.8,387.21,129.07,392.83,131.85Z" transform="translate(-58.93 -57.59)"/><path class="i" d="M345.71,121.43c13.12.5,28.38-1.77,37.41-7.7,19-12.46,12.76-5.81,23.53-1.38,6.54,2.69,25.1,1.92,37.81-6.76-3.12-6.61-7.74-13.35-13.3-21.27C424,74.05,420,72.76,412.22,75.82s-46.46,28.85-55.2,36.91C353.3,116.16,349.27,118.68,345.71,121.43Z" transform="translate(-58.93 -57.59)"/><path class="b" d="M337.17,131.7c-.13.26-.25.53-.37.8l-.27.63c7.17-4.16,70.86-60.33,92.15-38.34,21.89,22.62,14.21,70.81,14.06,71.71a10.63,10.63,0,0,0,1.78-2,17.6,17.6,0,0,0,2-3.76c4.07-8.47,2.43-21.51,2.26-33.34,0-1.2,0-2.39,0-3.55a40.25,40.25,0,0,0-4.27-18.3h0c-3.12-6.61-7.74-13.35-13.3-21.27C424,74.05,420,72.76,412.22,75.82s-46.46,28.85-55.2,36.91c-.52.48-1,.93-1.57,1.38l-.2.16-.26.22c-.39.32-.78.64-1.17.94l-.42.33-1.38,1-.08.06C345.91,121.31,340,124.78,337.17,131.7Z" transform="translate(-58.93 -57.59)"/><path class="b" d="M436.31,164.87c17.21-17.92,3.85-34.37-38.78-16.78s-52-17-52-17-10.3,25,30.54,29.75S423.82,177.88,436.31,164.87Z" transform="translate(-58.93 -57.59)"/><path class="ax" d="M72.14,155.37c4,2.43,1.56,2.83,4.25,4l2.39,1c.08.07.14.15.22.22a47,47,0,0,0,16,9.86h0c1.77.69,2.46,3.27,6.22,5.54a46.76,46.76,0,0,0,8.51,3.79,30.68,30.68,0,0,0,7.37-2.34c3.21-1.62,7.67-3.23,7.67-3.23a55.51,55.51,0,0,1,8-6.08l.82-.44,0,0a31.53,31.53,0,0,0,4.7-2.9l.08-.06.89-.66c1.09-.81,2.16-1.67,3.19-2.59l.07-.07c.18-.15.4-.36.64-.59.8-.74,1.58-1.5,2.34-2.3.94-1,1.81-2,2.64-3.09l.06-.06h0a46.88,46.88,0,0,0,8.43-16.79,25.09,25.09,0,0,1,3.79-3.26c3.57-2.46,1.16-11.1-2.85-17h0c-.08-.44-.17-.88-.26-1.32.68-1.36,1.44-2.84,2-3.81,1.24-2.21-.27-8.67-.27-8.67s-1.63-3.64-2.2-5.27-5-1.88-5-1.88L147,95.68A49.3,49.3,0,0,0,143.41,92a48.38,48.38,0,0,0-6.84-5.32c-.55-.79-1.31-1.86-2.31-3.27-2.35-3.29-6-4.37-6.71-6.29s-9.88-3.82-9.88-3.82l-9.76-.8L96.08,76.55l-9.43,7.14a50.71,50.71,0,0,0-3.58,4.88,46.9,46.9,0,0,0-6.17,5.5c-1,1-1.85,2.08-2.69,3.16l0,0c-1.11,1.48-6.47,7.74-8.08,8.33-1.34.49-3.65,5.56-4.39,7.28l-1,4.85,2.57,3.58a22.7,22.7,0,0,0-3.15,6.07c-2,5.7-1.17,3.94-.06,11.72s.88,5.77,5.13,9.76S68.11,153,72.14,155.37Z" transform="translate(-58.93 -57.59)"/><path class="b" d="M110.89,138.89C109.66,137.26,90,125.4,88.82,125c-.88-.29-16.85-1.84-25.85-2.7a21.57,21.57,0,0,0-2.49,5.09c-2,5.7-1.17,3.94-.06,11.72s.89,5.77,5.13,9.76,2.9,4.09,6.94,6.51,1.55,2.83,4.25,4l2.38,1c.08.07.14.15.22.22a47,47,0,0,0,16,9.86h0c1.76.69,2.45,3.27,6.21,5.54.58.35,1.19.68,1.8,1,.71-3.56,10.51-8.39,12.5-17.65C117.38,152,111.39,139.55,110.89,138.89Z" transform="translate(-58.93 -57.59)"/><path class="ay" d="M149.55,146.46a27.82,27.82,0,0,0-4.3-2.45l-5.52-.21-17,1.64-11.87-6.55c.5.66,6.49,13.08,4.92,20.45-2,9.26-11.79,14.09-12.5,17.65a51,51,0,0,0,6.71,2.79,30.83,30.83,0,0,0,7.38-2.34,82.8,82.8,0,0,1,7.66-3.23,55.51,55.51,0,0,1,8-6.08l.82-.44.05,0a31.53,31.53,0,0,0,4.7-2.9l.09-.06.88-.66c1.09-.81,2.16-1.67,3.19-2.59l.07-.07c.19-.15.4-.36.64-.59.8-.74,1.58-1.5,2.34-2.3.94-1,1.81-2,2.64-3.09l.06-.06h0a46.83,46.83,0,0,0,3.19-4.61C151,148.91,150.16,147,149.55,146.46Z" transform="translate(-58.93 -57.59)"/><path class="az" d="M129.1,96.77l-1.57-4.29-18.37-9.2h-4.6L98.73,90a46.74,46.74,0,0,0-8,4.91c-4,3.07-5.83,2.45-10.12,4.91s-4-.31-8.9,4.6-6.13,1-6.13,6.64A30.21,30.21,0,0,1,63,122.29c9,.86,25,2.41,25.85,2.7,1.22.41,20.84,12.27,22.07,13.9l.12.2,1.22-.2,3.84-3.17a39.6,39.6,0,0,0,6.28-5.21c2.15-2.45,5.18-10.73,5.18-10.73l2.79-12Z" transform="translate(-58.93 -57.59)"/><g class="ba"><path class="bb" d="M150.2,153.09c-.53.76-1.07,1.51-1.65,2.24C149.13,154.6,149.67,153.85,150.2,153.09Z" transform="translate(-58.93 -57.59)"/><path class="bb" d="M110.89,138.89s1.44,3,1.94,4.19A34.51,34.51,0,0,0,110.89,138.89Z" transform="translate(-58.93 -57.59)"/><path class="bb" d="M147.79,156.26l.7-.86-.7.86Z" transform="translate(-58.93 -57.59)"/><path class="bb" d="M157.92,118.31h0c-.08-.44-.17-.88-.26-1.32.57-1.14,1.19-2.35,1.69-3.28a11.76,11.76,0,0,1-4.49-.07c-4-1-8.28-4.29-8.28-4.29l-1.53-1.84-14.73-4.3-.53-.2.53,4.8-2.79,12s-3,8.28-5.18,10.73a39.6,39.6,0,0,1-6.28,5.21l-3.84,3.17-1,.17,11.57,6.38,17-1.64,5.52.21a27.82,27.82,0,0,1,4.3,2.45c.61.51,1.47,2.45,2.19,4.26-.46.75-1,1.5-1.45,2.24A46.78,46.78,0,0,0,157,138.54a25.59,25.59,0,0,1,3.79-3.26C164.34,132.82,161.94,124.18,157.92,118.31Z" transform="translate(-58.93 -57.59)"/></g><path class="bc" d="M92.7,147H63.4c.56.46,1.25,1,2.15,1.88,4.25,4,2.9,4.09,6.94,6.51s1.55,2.83,4.25,4l2.38,1c.08.07.14.15.22.22a47,47,0,0,0,16,9.86h0c1.33.52,2.06,2.14,4,3.89,4.66-1.53,2.5-2.39,3-4.16.61-2.05.21-5.52,1-7.77s-2.84-12.77-2.84-12.77Z" transform="translate(-58.93 -57.59)"/><path class="bd" d="M124.34,160.66c-2.09,2.39-8.89.22-2-3.77S127,157.68,124.34,160.66Z" transform="translate(-58.93 -57.59)"/><path class="bd" d="M84.66,141c-2.1,2.39-8.9.22-2-3.77S87.26,138.07,84.66,141Z" transform="translate(-58.93 -57.59)"/><path class="bd" d="M121.68,109.76c-1,1-4.38.1-1-1.63S123,108.47,121.68,109.76Z" transform="translate(-58.93 -57.59)"/><path class="bd" d="M86.41,89.07c-1,1-4.38.09-1-1.63S87.69,87.78,86.41,89.07Z" transform="translate(-58.93 -57.59)"/><path class="bd" d="M107.28,88c-3,1.11-7.94-4,0-4.26S111,86.6,107.28,88Z" transform="translate(-58.93 -57.59)"/><path class="bd" d="M79.75,116.71c-2.64,1.78-8.66-2.06-1-4.15S83,114.5,79.75,116.71Z" transform="translate(-58.93 -57.59)"/><path class="i" d="M156.22,125.84c1.46,2.82-3.05,8.36-4.24.48S154.39,122.33,156.22,125.84Z" transform="translate(-58.93 -57.59)"/><path class="bd" d="M85.35,156.15c-1.28.54-3.55-1.63-.06-1.87S87,155.47,85.35,156.15Z" transform="translate(-58.93 -57.59)"/><path class="bd" d="M85.35,103.91c-1.28.54-3.55-1.62-.06-1.87S87,103.24,85.35,103.91Z" transform="translate(-58.93 -57.59)"/><path class="bd" d="M136.3,98.25c-1.35-.35-1.84-3.45,1.08-1.53S138,98.68,136.3,98.25Z" transform="translate(-58.93 -57.59)"/><path class="bd" d="M110.89,148.4c1.41-1.15,3-.41,1,.92S109.45,149.58,110.89,148.4Z" transform="translate(-58.93 -57.59)"/><path class="bd" d="M141.9,146.61c1.18-1.39,2.83-.94,1.12.72S140.7,148,141.9,146.61Z" transform="translate(-58.93 -57.59)"/><path class="be" d="M64.09,139.06c-.16-1.81,1.32-2.67,1.3-.28S64.25,140.91,64.09,139.06Z" transform="translate(-58.93 -57.59)"/><path class="bf" d="M126.93,104.3c-.59-1.72.64-2.91,1.2-.59S127.54,106.06,126.93,104.3Z" transform="translate(-58.93 -57.59)"/><path class="bf" d="M106.87,107c1.41-1.15,2.95-.41,1,.92S105.44,108.16,106.87,107Z" transform="translate(-58.93 -57.59)"/><path class="bd" d="M100.57,124.38c.74-3.06,10-2.76,9.47,0S99.65,128.21,100.57,124.38Z" transform="translate(-58.93 -57.59)"/><path class="bd" d="M108.79,156.23c-3.31,2.15-2.7,5.13-.7,4.43S109.55,155.74,108.79,156.23Z" transform="translate(-58.93 -57.59)"/><path class="bd" d="M93.21,162.2a6.08,6.08,0,0,1,.59-.35c3.84-2.1,7.16.85,6.67,2.5s2.16,3.8,2.16,3.8-5.12,2-5.12-1.55S93.21,162.2,93.21,162.2Z" transform="translate(-58.93 -57.59)"/><path class="bd" d="M130.32,130.38c-5.87-.85,3.52-9.68,4.91-14.44s9.38-3.22,8.52.46S137.46,131.41,130.32,130.38Z" transform="translate(-58.93 -57.59)"/><path class="b" d="M116.07,78.06c-4.12-1.71,12.34,3.53,12.34,3.53s7.9,8,12.34,10.73a20.69,20.69,0,0,1,7.52,8.75c.3,1.07-6,1-8.44-3.78s-5.52-5.46-9.51-7.89S123.44,81.13,116.07,78.06Z" transform="translate(-58.93 -57.59)"/><path class="i" d="M83.44,91.76s5.89-5.11,7.22-7.26,8-6.72,9.4-6.78,12.17-2.73,12.58-2.83.17,5.42-3.85,6.14-5.56.3-7.3.92a14.59,14.59,0,0,0-4.84,2.35c-1.5,1.22-4.05,3.76-6,5.2S83.44,91.76,83.44,91.76Z" transform="translate(-58.93 -57.59)"/><path class="i" d="M149.57,99.07c-.91.63-4.22,2.38-.77,4.14s4.45.16,4.45,3.3-.76,6.06,1.38,5.29,4.45-3.68,2.23-6.59S150.87,98.18,149.57,99.07Z" transform="translate(-58.93 -57.59)"/><path class="bg" d="M102.63,131.89c-3.34-2.24,3.34,5.31,10.2,3.22s10.14-12.24,10.29-13.4-2.39-.33-7.71,5.16S104.7,133.27,102.63,131.89Z" transform="translate(-58.93 -57.59)"/><path class="bg" d="M90.6,101.63c-5.4,3.83-7.36,8.34-2.3,8.57s14.68-5.71,15-7.19S94.13,99.13,90.6,101.63Z" transform="translate(-58.93 -57.59)"/><path class="bg" d="M117.9,96.1c-3.66-.16-7.82,3.31-3.52,4.45s8.75-1.6,8.75-1.6S119.76,96.18,117.9,96.1Z" transform="translate(-58.93 -57.59)"/><path class="bg" d="M71.28,128.37c-4,4,2.76,6,6.29,4.44a27.4,27.4,0,0,0,6.9-4.83S73,126.68,71.28,128.37Z" transform="translate(-58.93 -57.59)"/><path class="bg" d="M125.31,151c.45,2.15,12-1.74,12.48-6.44S124,144.68,125.31,151Z" transform="translate(-58.93 -57.59)"/><path class="bh" d="M91.88,119.78c-3.86-7.85,15.64-9.82,16.36-4.61S95.05,126.22,91.88,119.78Z" transform="translate(-58.93 -57.59)"/><path class="f" d="M108.24,115.17c-.54-3.91-11.65-3.78-15.54-.15,4.82-2.15,12.84-1.74,13.3,1.57.2,1.53-.85,3.11-2.51,4.42C106.37,119.56,108.53,117.31,108.24,115.17Z" transform="translate(-58.93 -57.59)"/><path class="bi" d="M138.91,138.38c-4.43-1.3.18-10.12,4.84-9.4S160.32,144.67,138.91,138.38Z" transform="translate(-58.93 -57.59)"/><path class="f" d="M143.75,129c-2.29-.35-4.56,1.6-5.76,3.82a4.28,4.28,0,0,1,2.84-.66c2.44.37,6.83,4.63,7.45,7.72C155.68,139.06,147.45,129.54,143.75,129Z" transform="translate(-58.93 -57.59)"/><path class="bj" d="M103.84,151.57c-6.28-.54-11.32-9.51-1.21-10.58S111,152.18,103.84,151.57Z" transform="translate(-58.93 -57.59)"/><path class="f" d="M102.63,141c-3.64.38-5.31,1.8-5.67,3.47a10.21,10.21,0,0,1,3.32-.84c6.4-.68,8,4,6.58,7.34C111.25,148.56,111.11,140.09,102.63,141Z" transform="translate(-58.93 -57.59)"/><path class="bk" d="M103.34,91.25c-2.9-2,11.24-4.91,17.17-.31S110.71,96.26,103.34,91.25Z" transform="translate(-58.93 -57.59)"/><path class="f" d="M120.51,90.94c-5.93-4.6-20.07-1.66-17.17.31l.18.12c3.57-1.24,11.67-1.69,15.8,1.52a3.91,3.91,0,0,1,1.14,1.24C122.07,93.52,122.43,92.44,120.51,90.94Z" transform="translate(-58.93 -57.59)"/><path class="bl" d="M133.9,110.2c-2.51-2.26,6.75-5.36,9-1.37S136.66,112.69,133.9,110.2Z" transform="translate(-58.93 -57.59)"/><path class="f" d="M142.9,108.83c-1.91-3.39-8.88-1.66-9.37.33,2.36-.83,5.84-.83,7.11,1.42a2.53,2.53,0,0,1,.37,1.28C142.79,111.55,143.89,110.6,142.9,108.83Z" transform="translate(-58.93 -57.59)"/><path class="bm" d="M69.29,142c9.64.38,16.66-6,4.9-7.54S60.8,141.7,69.29,142Z" transform="translate(-58.93 -57.59)"/><path class="f" d="M74.19,134.5c-6.54-.86-9.94,1.47-10.21,3.76,1.69-1,4.39-1.51,8.1-1,4.19.55,6,1.72,6.13,3C81.55,138.29,81.51,135.45,74.19,134.5Z" transform="translate(-58.93 -57.59)"/><path class="bn" d="M129.48,159.34c5.94-9.33,12.9-4,7.64,1.78S126.8,163.55,129.48,159.34Z" transform="translate(-58.93 -57.59)"/><path class="f" d="M129.48,159.34a2.19,2.19,0,0,0-.16.3c4.48-4.47,8.63-1.69,6.91,2.35a12,12,0,0,0,.89-.87C142.38,155.38,135.42,150,129.48,159.34Z" transform="translate(-58.93 -57.59)"/><path class="bo" d="M80.71,103.52c-2.71-.8.23-6.67,6-6.75S84.62,104.67,80.71,103.52Z" transform="translate(-58.93 -57.59)"/><path class="f" d="M86.69,96.77A7.76,7.76,0,0,0,81,99.35a8,8,0,0,1,3.3-.77c3.06,0,2.28,2.2.29,4.13C87.94,100.83,90.83,96.72,86.69,96.77Z" transform="translate(-58.93 -57.59)"/><path class="bp" d="M103.9,171.87c-3.15-1-1.48-9.41,4.06-6.55S109.21,173.5,103.9,171.87Z" transform="translate(-58.93 -57.59)"/><path class="f" d="M108,165.32c-2.75-1.42-4.55,0-5.27,1.8a3.86,3.86,0,0,1,3.28.37c2.27,1.17,2.87,2.75,2.45,4.1C111,170.32,111.72,167.26,108,165.32Z" transform="translate(-58.93 -57.59)"/><path class="bq" d="M125.23,126.05c-5-.94-3.28-12.26,4.09-11.18S131.26,127.19,125.23,126.05Z" transform="translate(-58.93 -57.59)"/><path class="f" d="M129.32,114.87a5.63,5.63,0,0,0-6.1,3.29,5.61,5.61,0,0,1,3.69-.65c4.16.61,4.24,4.46,2.44,7.49C133.14,122.31,134.89,115.68,129.32,114.87Z" transform="translate(-58.93 -57.59)"/><path class="i" d="M157.6,118.31c-.07-.44-.16-.88-.25-1.32l.45-.91.36-.69.07-.14c.13-.27.27-.53.4-.78v0l.39-.74.29-.53c1.23-2.21-.27-8.67-.27-8.67s-1.64-3.64-2.21-5.27-5-1.88-5-1.88L147,95.68A49.15,49.15,0,0,0,143.44,92a47.19,47.19,0,0,0-6.85-5.32c-.55-.79-1.3-1.86-2.3-3.27-2.35-3.29-6-4.37-6.71-6.29s-9.88-3.82-9.88-3.82l-9.76-.8L96.1,76.55l-9.43,7.14a50.71,50.71,0,0,0-3.58,4.88,48.21,48.21,0,0,0-6.17,5.5c-1,1-1.84,2.08-2.69,3.16,0,0,0,0,0,0a75.29,75.29,0,0,1-5.18,5.9c16.14,1.4,27.11,12.15,36,21.36,10.78,11.19,26.8,4.21,30.83,2.34s6.38,6.41,12.16,13a61,61,0,0,1,5.18,7.8h0c.21-.4.4-.81.6-1.22l.36-.78c.17-.37.33-.73.48-1.1s.27-.66.4-1,.26-.64.38-1,.29-.83.43-1.25c.09-.25.18-.5.26-.76.22-.68.43-1.37.61-2.06a25.59,25.59,0,0,1,3.79-3.26c3.58-2.46,1.17-11.1-2.84-17Z" transform="translate(-58.93 -57.59)"/><path class="i" d="M158.13,115.39l.07-.14.4-.78,0,0c.13-.26.26-.51.39-.74l.28-.53c1.24-2.21-.27-8.67-.27-8.67s-1.63-3.64-2.2-5.27-5-1.88-5-1.88L147,95.68A49.3,49.3,0,0,0,143.41,92a47.66,47.66,0,0,0-6.84-5.32c-.55-.79-1.31-1.86-2.31-3.27-2.35-3.29-6-4.37-6.71-6.29s-9.87-3.82-9.87-3.82l-9.77-.8L96.08,76.55l-9.43,7.14a50.71,50.71,0,0,0-3.58,4.88c-.67.5-1.32,1-2,1.56,10.79,8,30.9,12.67,36.4,11.88,8.8-1.25,9.09-10.06,16.31,2.32s18.23,18.18,23.61,21.72c1.93,1.27,3.37,2.48,4.66,3.48a27.06,27.06,0,0,0-4.5-11.22h0c-.08-.44-.17-.88-.26-1.32.15-.3.31-.6.46-.91S158,115.62,158.13,115.39Z" transform="translate(-58.93 -57.59)"/><path class="b" d="M96.71,168.36a2.78,2.78,0,0,1,.34.26l0,0c.1.09.21.19.31.3l.11.11.26.3c.42.48.88,1.06,1.47,1.66v0a12.9,12.9,0,0,0,2.63,2.09,42.42,42.42,0,0,0,7.71,3.43h0a27.87,27.87,0,0,0,6.71-2.12c2.92-1.47,7-2.94,7-2.94a50.4,50.4,0,0,1,7.29-5.54c.25-.13.5-.26.74-.4l.05,0a29.42,29.42,0,0,0,4.28-2.64l.08-.06.8-.6c1-.74,2-1.52,2.9-2.36l.07-.06c.17-.14.37-.32.58-.53.73-.68,1.44-1.37,2.13-2.1.85-.91,1.65-1.85,2.41-2.81l0-.06h0c.52-.66,1-1.35,1.5-2l.08-.13c.57-.82,1.09-1.66,1.59-2.51a42.26,42.26,0,0,1-11.88-4c-7.76-3.59-4.72-1.8-8.8-2.46s-6.53-.27-10.44-1-6.69-.81-10.76-4.29-1.33-3-3.89-7.09-.42-3-9.44-1.85c-6.23.81-17.58-7.43-24.86-17.14-.79,1.43-1.51,3-1.86,3.83l-.87,4.42,2.19,3.06c-.27.68-.46,1.09-.46,1.09h0l-.15.23-.17.27c0,.08-.1.15-.14.23l-.21.35-.12.21c-.11.2-.22.4-.32.62,0,0,0,.09-.08.14s-.17.37-.27.57-.07.16-.11.25-.16.37-.24.58-.07.17-.11.26c-.11.29-.23.59-.34.92-1.81,5.19-1.07,3.59-.06,10.67.8,5.58.85,5.63,2.73,7.19l.19.16.37.3.17.15.4.35.17.15c.2.18.42.37.64.59,3.87,3.63,2.64,3.71,6.31,5.92s1.42,2.57,3.87,3.63l2.18.92.19.2a42.66,42.66,0,0,0,14.52,9h0a2,2,0,0,1,.38.2Z" transform="translate(-58.93 -57.59)"/><path class="br" d="M716.42,89.5c-7.95-5.07-17.69-6.18-17.69-6.18s-21.21,9.41-22.92,10.34-27.06.7-31.12,2.7-11.6,2.37-15.11,7.78-4.35,8.35-6.25,14.68-5.06,12.62-5.48,16.13-1.79,1.13-1.27,10S631,162.36,631,162.36s17.3,1.71,21,2,16.37.93,16.37.93,13.66,1.38,21.38.62,17.06-4.95,21.18-8.82,10.9-11,10.84-17.36.71-10.4,2.83-13.14,5.28-9.17,5.28-13.28-3.1-13.08-3.1-13.08l-8.13-10.91Z" transform="translate(-58.93 -57.59)"/><path class="b" d="M692.06,159.36l-18.9-13-29-2.3-7.6-18.2-13.4-2.16-2.22,1.9c-1.45,3.77-2.82,7.12-3.09,9.35-.43,3.51-1.79,1.13-1.27,10S631,162.36,631,162.36s17.3,1.71,21,2,16.37.93,16.37.93,13.66,1.38,21.38.62a33.54,33.54,0,0,0,5.15-.94Z" transform="translate(-58.93 -57.59)"/><path class="i" d="M662,122.65l9.53-12.14L698,106.36l-2.21-12.59-8.64-5.3c-5.28,2.37-10.54,4.75-11.36,5.19-1.71.93-27.06.7-31.12,2.7s-11.6,2.37-15.11,7.78-4.35,8.35-6.25,14.68c-.62,2.06-1.38,4.12-2.12,6.08l15.35,1Z" transform="translate(-58.93 -57.59)"/><path d="M664.83,165.15h0Z" transform="translate(-58.93 -57.59)"/><path d="M663,165.06h0Z" transform="translate(-58.93 -57.59)"/><path d="M661.16,165h0Z" transform="translate(-58.93 -57.59)"/><path d="M662.1,165h0Z" transform="translate(-58.93 -57.59)"/><path d="M657.3,164.75Z" transform="translate(-58.93 -57.59)"/><path d="M668.34,165.33h0Z" transform="translate(-58.93 -57.59)"/><path d="M659.27,164.86h0Z" transform="translate(-58.93 -57.59)"/><path d="M658.36,164.81h0Z" transform="translate(-58.93 -57.59)"/><path d="M664,165.11h0Z" transform="translate(-58.93 -57.59)"/><path d="M694.87,165l-1.24.3Z" transform="translate(-58.93 -57.59)"/><path d="M693.45,165.34l-1.09.23Z" transform="translate(-58.93 -57.59)"/><path d="M691.86,165.65l-.8.13Z" transform="translate(-58.93 -57.59)"/><path d="M666.85,165.26l-.27,0Z" transform="translate(-58.93 -57.59)"/><path d="M666.25,165.23h0Z" transform="translate(-58.93 -57.59)"/><path d="M668.16,165.32h0Z" transform="translate(-58.93 -57.59)"/><path d="M665.55,165.19h0Z" transform="translate(-58.93 -57.59)"/><path d="M667.77,165.3h0Z" transform="translate(-58.93 -57.59)"/><path d="M664.83,165.15h0Z" transform="translate(-58.93 -57.59)"/><path d="M663,165.06h0Z" transform="translate(-58.93 -57.59)"/><path d="M661.16,165h0Z" transform="translate(-58.93 -57.59)"/><path d="M662.1,165h0Z" transform="translate(-58.93 -57.59)"/><path d="M657.3,164.75Z" transform="translate(-58.93 -57.59)"/><path d="M668.34,165.33h0Z" transform="translate(-58.93 -57.59)"/><path d="M659.27,164.86h0Z" transform="translate(-58.93 -57.59)"/><path d="M658.36,164.81h0Z" transform="translate(-58.93 -57.59)"/><path d="M664,165.11h0Z" transform="translate(-58.93 -57.59)"/><path d="M694.87,165l-1.24.3Z" transform="translate(-58.93 -57.59)"/><path d="M693.45,165.34l-1.09.23Z" transform="translate(-58.93 -57.59)"/><path class="f" d="M714.06,141.32l-12.51-9.71-4.74-10.5-25.25-10.6L662,122.65l-25.47,3.21,7.6,18.2,29,2.3,18.9,13,2.81,5.65c6.36-1.62,12.8-4.85,16-7.88a54.84,54.84,0,0,0,7.11-7.91Z" transform="translate(-58.93 -57.59)"/><path d="M691.86,165.65l-.8.13Z" transform="translate(-58.93 -57.59)"/><path d="M666.85,165.26l-.27,0Z" transform="translate(-58.93 -57.59)"/><path d="M666.25,165.23h0Z" transform="translate(-58.93 -57.59)"/><path d="M668.16,165.32h0Z" transform="translate(-58.93 -57.59)"/><path d="M665.55,165.19h0Z" transform="translate(-58.93 -57.59)"/><path d="M667.77,165.3h0Z" transform="translate(-58.93 -57.59)"/><g class="m"><path class="bs" d="M714.9,153.07h0l.19-.21Z" transform="translate(-58.93 -57.59)"/><polygon class="bs" points="603.1 65.06 602.73 65.11 602.73 65.11 603.1 65.06"/><path class="bs" d="M725.56,118.67l-14.93-12.31H698l-26.46,4.15,25.25,10.6,4.74,10.5,12.51,9.71,4,7.9-.77,1.05c2.51-3.28,4.54-7,4.5-10.5-.06-6.39.71-10.4,2.83-13.14A30.77,30.77,0,0,0,728.2,120Z" transform="translate(-58.93 -57.59)"/><path class="bs" d="M717,150.52c-.21.28-.44.55-.66.83C716.6,151.07,716.83,150.8,717,150.52Z" transform="translate(-58.93 -57.59)"/><path class="bs" d="M716.22,151.55c-.25.3-.51.59-.76.88C715.71,152.14,716,151.85,716.22,151.55Z" transform="translate(-58.93 -57.59)"/></g><g class="m"><path class="bt" d="M714.9,153.07h0l.19-.21Z" transform="translate(-58.93 -57.59)"/><polygon class="bt" points="603.1 65.06 602.73 65.11 602.73 65.11 603.1 65.06"/><path class="bt" d="M725.56,118.67l-14.93-12.31H698l-26.46,4.15,25.25,10.6,4.74,10.5,12.51,9.71,4,7.9-.77,1.05c2.51-3.28,4.54-7,4.5-10.5-.06-6.39.71-10.4,2.83-13.14A30.77,30.77,0,0,0,728.2,120Z" transform="translate(-58.93 -57.59)"/><path class="bt" d="M717,150.52c-.21.28-.44.55-.66.83C716.6,151.07,716.83,150.8,717,150.52Z" transform="translate(-58.93 -57.59)"/><path class="bt" d="M716.22,151.55c-.25.3-.51.59-.76.88C715.71,152.14,716,151.85,716.22,151.55Z" transform="translate(-58.93 -57.59)"/></g><g class="s"><path class="bu" d="M718,149.22h0c-.25.36-.51.71-.77,1.06Z" transform="translate(-58.93 -57.59)"/><path class="bu" d="M701.55,131.61l12.51,9.71,4,7.89a28.14,28.14,0,0,0,1.55-2.41c-1.61-2.73-3.47-5.81-4.1-6.61-1.18-1.5-11.9-9.58-11.9-9.58s-4.92-10.92-5.54-11.5-26.46-8.6-26.46-8.6l25.25,10.6Z" transform="translate(-58.93 -57.59)"/></g><polygon class="x" points="652.88 47.03 638 47.03 612.63 52.93 639.09 48.77 651.7 48.77 666.63 61.08 669.27 62.45 670.12 60.14 652.88 47.03"/><polygon class="x" points="577.63 68.27 607.13 66.12 612.63 52.93 603.1 65.06 577.63 68.27"/><path class="bv" d="M625.93,144.94c4.93-6.81,23.09-1.33,11.5,6.17S620.81,152,625.93,144.94Z" transform="translate(-58.93 -57.59)"/><path class="f" d="M626.22,144.59c6.3-2.49,16.54,1.56,10.06,7.23.38-.22.76-.46,1.15-.71C648.81,143.74,631.52,138.34,626.22,144.59Z" transform="translate(-58.93 -57.59)"/><path class="bw" d="M664.44,134c0-8.2,22.2-3.92,21.54,1.88S664.41,141.32,664.44,134Z" transform="translate(-58.93 -57.59)"/><path class="f" d="M665,132c6.17-2.08,18.7,1.43,18.19,5.81a2.43,2.43,0,0,1-.39,1.07c1.79-.67,3-1.68,3.18-3C686.58,130.63,668.44,126.62,665,132Z" transform="translate(-58.93 -57.59)"/><path class="bx" d="M643.23,111.19c-4.15-4.79,6.75-13.14,13.91-6.57S648.06,116.77,643.23,111.19Z" transform="translate(-58.93 -57.59)"/><path class="f" d="M657.14,104.62c-5.6-5.14-13.48-1.16-14.67,3.12a9.26,9.26,0,0,1,11.84.55,4.48,4.48,0,0,1,1.79,3.49C659,110.13,660.25,107.47,657.14,104.62Z" transform="translate(-58.93 -57.59)"/><path class="by" d="M705,118.11c-.41-4.07,12.5-2.92,13.58,1.58S705.64,124.77,705,118.11Z" transform="translate(-58.93 -57.59)"/><path class="x" d="M718.56,119.69c-1-4.32-12.95-5.55-13.56-2,3.75-.67,10.07.84,10.81,3.93a1.85,1.85,0,0,1-.08,1.17C717.63,122.23,718.92,121.17,718.56,119.69Z" transform="translate(-58.93 -57.59)"/><path class="bz" d="M695.56,154.19c-3.64-2.75,4.33-6.76,6.58-3.92S699,156.77,695.56,154.19Z" transform="translate(-58.93 -57.59)"/><path class="f" d="M702.14,150.27c-1.69-2.14-6.62-.4-7.41,1.77,1.75-1.44,5.09-2.16,6.42-.48a2.19,2.19,0,0,1,.32,2.34C702.63,152.94,703.14,151.52,702.14,150.27Z" transform="translate(-58.93 -57.59)"/><path class="ca" d="M680.56,98.48c-3.07-2.66,3.08-7.29,6.58-4.58S684.31,101.73,680.56,98.48Z" transform="translate(-58.93 -57.59)"/><path class="f" d="M686.27,95.32a2.25,2.25,0,0,1,.91,2.57c1.15-1.2,1.47-2.82,0-4-2.6-2-6.66,0-7.32,2.3C681.32,94.65,684.24,93.74,686.27,95.32Z" transform="translate(-58.93 -57.59)"/><path class="cb" d="M708.43,99.53c-3.67-4.58,2-10.8,7.58-5.8S711.68,103.57,708.43,99.53Z" transform="translate(-58.93 -57.59)"/><path class="f" d="M716,93.73c-3.7-3.34-7.47-1.67-8.48,1.17,1.66-1.54,4.49-1.88,7.29.65,1.5,1.35,1.87,2.68,1.55,3.84C717.93,98,718.39,95.88,716,93.73Z" transform="translate(-58.93 -57.59)"/><path class="f" d="M657.3,164.75h0Z" transform="translate(-58.93 -57.59)"/><path class="f" d="M657.3,164.75h0Z" transform="translate(-58.93 -57.59)"/><path class="i" d="M726.75,100.27l-8.13-10.91-2.2.14c-7.95-5.07-17.69-6.18-17.69-6.18s-7.15,3.17-13.49,6l-.06,0-.81.36-.23.11-.73.32-.22.1-.69.31-.29.13-.54.25-.46.21-.4.18-.42.19-.42.19-.41.19-.36.16-.4.18-.33.15-.35.17-.3.13-.31.15-.27.12-.26.12-.24.12-.26.12-.14.07-.24.11-.08,0-.21.11c-1.23.67-14.68.73-23.65,1.47,8.88,4.44,15.26,12.87,21,28,8.52,22.39,16.29,36.35,30.3,38.78l.35-.16.32-.16.72-.36.48-.26c.21-.11.42-.22.62-.34l.6-.34L707,160c.33-.2.66-.4,1-.61l.33-.23c.22-.14.44-.29.64-.44l.33-.24c.21-.15.4-.31.59-.46l.27-.21c.26-.22.52-.44.75-.66a54.84,54.84,0,0,0,7.11-7.91h0l.12-.17a.86.86,0,0,0,.07-.1c.25-.36.5-.73.73-1.1.06-.09.11-.18.17-.26.19-.32.38-.64.56-1l.21-.37c.15-.29.3-.58.44-.88l.21-.44c.12-.27.23-.55.34-.83l.18-.47c.1-.28.17-.55.25-.83s.1-.31.14-.47a8.85,8.85,0,0,0,.16-.87c0-.14.06-.28.08-.42a9,9,0,0,0,.07-1.27c-.06-6.39.71-10.4,2.83-13.14.14-.17.28-.37.42-.57l.12-.17.33-.5.1-.17c.13-.19.25-.38.37-.59a.75.75,0,0,0,.07-.12c.14-.23.27-.46.41-.71l0-.07.44-.82v0a32.93,32.93,0,0,0,2.16-5.15h0a15.33,15.33,0,0,0,.8-4.38C729.85,109.24,726.75,100.27,726.75,100.27Z" transform="translate(-58.93 -57.59)"/><path class="f" d="M729.05,117.73h0a15.33,15.33,0,0,0,.8-4.38c0-4.11-3.1-13.08-3.1-13.08l-8.13-10.91-2.2.14c-7.95-5.07-17.69-6.18-17.69-6.18s-5.78,2.56-11.55,5.15c10,8.55,16.68,19.89,17.9,34.13,1,12.25,6.19,21.78,12.82,26.78l.11-.16h0l.12-.17a.86.86,0,0,0,.07-.1c.25-.36.5-.73.73-1.1.06-.09.11-.18.17-.26.19-.32.38-.64.56-1l.21-.37c.15-.29.3-.58.44-.88l.21-.44c.12-.27.23-.55.34-.83l.18-.47c.1-.28.17-.55.25-.83s.1-.31.14-.47a8.85,8.85,0,0,0,.16-.87c0-.14.06-.28.08-.42a9,9,0,0,0,.07-1.27c-.06-6.39.71-10.4,2.83-13.14.14-.17.28-.37.42-.57l.12-.17.33-.5.1-.17c.13-.19.25-.38.37-.59a.75.75,0,0,0,.07-.12c.14-.23.27-.46.41-.71l0-.07.44-.82v0a32.93,32.93,0,0,0,2.16-5.15Z" transform="translate(-58.93 -57.59)"/><path class="aw" d="M631.7,161.31s16.68,1.64,20.26,2,15.78.9,15.78.9a161.47,161.47,0,0,0,17.93.76,76.79,76.79,0,0,0-14.82-32.47c-15.14-19.85-30.47-25.13-34.22-32a12.71,12.71,0,0,0-6.27,4.67c-3.38,5.23-4.19,8-6,14.15-.29,1-.61,1.93-1,2.89a1.46,1.46,0,0,1-.07.19c-.33,1-.68,1.88-1,2.79-.08.23-.17.45-.25.68-.24.61-.47,1.2-.69,1.78-.08.19-.15.38-.22.57s-.14.35-.2.52l-.27.7c0,.15-.11.3-.16.44s-.21.56-.3.83l-.09.25c-.12.34-.23.68-.34,1,0,.09,0,.18-.08.27s-.14.46-.21.69-.06.2-.08.3-.11.42-.15.61l-.06.27c-.06.27-.11.53-.14.78-.41,3.38-1.72,1.09-1.22,9.62S631.7,161.31,631.7,161.31Z" transform="translate(-58.93 -57.59)"/><path class="cc" d="M698.92,138.53c2.11-.59,3.09,2.94.5,3.41S696.4,139.24,698.92,138.53Z" transform="translate(-58.93 -57.59)"/><path class="cc" d="M704.78,104.67c2.11-.59,3.09,2.93.5,3.4S702.26,105.37,704.78,104.67Z" transform="translate(-58.93 -57.59)"/><path class="cc" d="M675.31,119.42c2.11-.59,3.09,2.93.5,3.4S672.79,120.12,675.31,119.42Z" transform="translate(-58.93 -57.59)"/><path class="cc" d="M684.46,142.79c2.11-.59,3.09,2.94.51,3.41S681.94,143.5,684.46,142.79Z" transform="translate(-58.93 -57.59)"/><path class="cd" d="M668.15,98.46c2.11-.59,3.09,2.93.5,3.4S665.63,99.16,668.15,98.46Z" transform="translate(-58.93 -57.59)"/><path class="cd" d="M663.79,124.17c2.11-.59,3.09,2.93.5,3.4S661.27,124.87,663.79,124.17Z" transform="translate(-58.93 -57.59)"/><path class="cd" d="M637.59,128.71c1.94,1,.22,4.26-2,2.82S635.27,127.49,637.59,128.71Z" transform="translate(-58.93 -57.59)"/><path class="cd" d="M667.81,156.47c.74,2.06-2.7,3.3-3.36.75S666.92,154,667.81,156.47Z" transform="translate(-58.93 -57.59)"/><path class="ce" d="M650.48,159.4c1.19-1.36,6.58-1.21,4.87,1S649.85,160.11,650.48,159.4Z" transform="translate(-58.93 -57.59)"/><path class="ce" d="M649.08,132.88c.82-1.61,6.08-2.8,5-.24S648.65,133.72,649.08,132.88Z" transform="translate(-58.93 -57.59)"/><path class="ce" d="M634.44,116.57c-.07-1.81,3.93-5.42,4.22-2.64S634.48,117.51,634.44,116.57Z" transform="translate(-58.93 -57.59)"/><path class="ce" d="M621.44,143.75c-.31-1.78,3.17-5.9,3.83-3.18S621.61,144.68,621.44,143.75Z" transform="translate(-58.93 -57.59)"/><path class="ce" d="M671.06,106.12c1.44-1.09,6.69.15,4.57,2S670.3,106.69,671.06,106.12Z" transform="translate(-58.93 -57.59)"/><path class="ce" d="M689.41,126.52c1.52,1,2.2,6.32-.25,5S688.61,126,689.41,126.52Z" transform="translate(-58.93 -57.59)"/><path class="ce" d="M697,89c1.69-.65,6.4,2,3.86,3.15S696.13,89.29,697,89Z" transform="translate(-58.93 -57.59)"/><path class="ce" d="M685.63,111.88c1.47-1,6.68.32,4.52,2.08S684.86,112.43,685.63,111.88Z" transform="translate(-58.93 -57.59)"/></svg>